<mxfile host="app.diagrams.net" modified="2024-01-25T05:54:44.893Z" agent="Mozilla/5.0 (Windows NT 10.0; Win64; x64) AppleWebKit/537.36 (KHTML, like Gecko) Chrome/120.0.0.0 Safari/537.36" etag="B8fNNK7bI9tC43oeB8rr" version="22.1.21" type="google">
  <diagram name="Page-1" id="wG9Co-DMLz1BGURiABJ0">
    <mxGraphModel grid="1" page="0" gridSize="10" guides="1" tooltips="1" connect="1" arrows="1" fold="1" pageScale="1" pageWidth="850" pageHeight="1100" math="0" shadow="0">
      <root>
        <mxCell id="0" />
        <mxCell id="1" parent="0" />
        <mxCell id="TT_8M1BcKb8gWuIl-T7q-1" value="Staff" style="shape=umlActor;verticalLabelPosition=bottom;verticalAlign=top;html=1;outlineConnect=0;" vertex="1" parent="1">
          <mxGeometry x="-30" y="-40" width="30" height="60" as="geometry" />
        </mxCell>
        <mxCell id="v62b1vU4KLSygvo5HSkQ-2" style="edgeStyle=orthogonalEdgeStyle;rounded=0;orthogonalLoop=1;jettySize=auto;html=1;" edge="1" parent="1" source="TT_8M1BcKb8gWuIl-T7q-2">
          <mxGeometry relative="1" as="geometry">
            <mxPoint x="-20" y="40" as="targetPoint" />
            <Array as="points">
              <mxPoint x="-115" y="130" />
              <mxPoint x="-20" y="130" />
            </Array>
          </mxGeometry>
        </mxCell>
        <mxCell id="v62b1vU4KLSygvo5HSkQ-10" style="edgeStyle=orthogonalEdgeStyle;rounded=0;orthogonalLoop=1;jettySize=auto;html=1;entryX=0;entryY=0.5;entryDx=0;entryDy=0;" edge="1" parent="1" source="TT_8M1BcKb8gWuIl-T7q-2" target="TT_8M1BcKb8gWuIl-T7q-8">
          <mxGeometry relative="1" as="geometry">
            <Array as="points">
              <mxPoint x="-115" y="390" />
            </Array>
          </mxGeometry>
        </mxCell>
        <mxCell id="v62b1vU4KLSygvo5HSkQ-11" style="edgeStyle=orthogonalEdgeStyle;rounded=0;orthogonalLoop=1;jettySize=auto;html=1;entryX=0;entryY=0.5;entryDx=0;entryDy=0;" edge="1" parent="1" source="TT_8M1BcKb8gWuIl-T7q-2" target="TT_8M1BcKb8gWuIl-T7q-9">
          <mxGeometry relative="1" as="geometry">
            <Array as="points">
              <mxPoint x="-115" y="390" />
              <mxPoint x="95" y="390" />
              <mxPoint x="95" y="470" />
            </Array>
          </mxGeometry>
        </mxCell>
        <mxCell id="v62b1vU4KLSygvo5HSkQ-12" style="edgeStyle=orthogonalEdgeStyle;rounded=0;orthogonalLoop=1;jettySize=auto;html=1;entryX=0;entryY=0.5;entryDx=0;entryDy=0;" edge="1" parent="1" source="TT_8M1BcKb8gWuIl-T7q-2" target="TT_8M1BcKb8gWuIl-T7q-9">
          <mxGeometry relative="1" as="geometry">
            <Array as="points">
              <mxPoint x="-115" y="390" />
              <mxPoint x="95" y="390" />
              <mxPoint x="95" y="470" />
            </Array>
          </mxGeometry>
        </mxCell>
        <mxCell id="v62b1vU4KLSygvo5HSkQ-14" style="edgeStyle=orthogonalEdgeStyle;rounded=0;orthogonalLoop=1;jettySize=auto;html=1;entryX=0;entryY=0.5;entryDx=0;entryDy=0;" edge="1" parent="1" source="TT_8M1BcKb8gWuIl-T7q-2" target="TT_8M1BcKb8gWuIl-T7q-13">
          <mxGeometry relative="1" as="geometry">
            <Array as="points">
              <mxPoint x="-115" y="390" />
              <mxPoint x="95" y="390" />
              <mxPoint x="95" y="670" />
            </Array>
          </mxGeometry>
        </mxCell>
        <mxCell id="v62b1vU4KLSygvo5HSkQ-15" style="edgeStyle=orthogonalEdgeStyle;rounded=0;orthogonalLoop=1;jettySize=auto;html=1;entryX=0;entryY=0.5;entryDx=0;entryDy=0;" edge="1" parent="1" source="TT_8M1BcKb8gWuIl-T7q-2" target="TT_8M1BcKb8gWuIl-T7q-11">
          <mxGeometry relative="1" as="geometry">
            <Array as="points">
              <mxPoint x="-115" y="390" />
              <mxPoint x="95" y="390" />
              <mxPoint x="95" y="760" />
            </Array>
          </mxGeometry>
        </mxCell>
        <mxCell id="TT_8M1BcKb8gWuIl-T7q-2" value="Doctor" style="shape=umlActor;verticalLabelPosition=bottom;verticalAlign=top;html=1;outlineConnect=0;" vertex="1" parent="1">
          <mxGeometry x="-130" y="240" width="30" height="60" as="geometry" />
        </mxCell>
        <mxCell id="v62b1vU4KLSygvo5HSkQ-3" style="edgeStyle=orthogonalEdgeStyle;rounded=0;orthogonalLoop=1;jettySize=auto;html=1;" edge="1" parent="1" source="TT_8M1BcKb8gWuIl-T7q-3">
          <mxGeometry relative="1" as="geometry">
            <mxPoint x="-20" y="40" as="targetPoint" />
            <Array as="points">
              <mxPoint x="65" y="130" />
              <mxPoint x="-20" y="130" />
            </Array>
          </mxGeometry>
        </mxCell>
        <mxCell id="v62b1vU4KLSygvo5HSkQ-46" style="edgeStyle=orthogonalEdgeStyle;rounded=0;orthogonalLoop=1;jettySize=auto;html=1;entryX=0;entryY=0.5;entryDx=0;entryDy=0;" edge="1" parent="1" source="TT_8M1BcKb8gWuIl-T7q-3" target="TT_8M1BcKb8gWuIl-T7q-15">
          <mxGeometry relative="1" as="geometry" />
        </mxCell>
        <mxCell id="v62b1vU4KLSygvo5HSkQ-47" style="edgeStyle=orthogonalEdgeStyle;rounded=0;orthogonalLoop=1;jettySize=auto;html=1;entryX=0;entryY=0.5;entryDx=0;entryDy=0;" edge="1" parent="1" source="TT_8M1BcKb8gWuIl-T7q-3" target="TT_8M1BcKb8gWuIl-T7q-16">
          <mxGeometry relative="1" as="geometry" />
        </mxCell>
        <mxCell id="v62b1vU4KLSygvo5HSkQ-48" style="edgeStyle=orthogonalEdgeStyle;rounded=0;orthogonalLoop=1;jettySize=auto;html=1;" edge="1" parent="1" source="TT_8M1BcKb8gWuIl-T7q-3" target="TT_8M1BcKb8gWuIl-T7q-6">
          <mxGeometry relative="1" as="geometry" />
        </mxCell>
        <mxCell id="TT_8M1BcKb8gWuIl-T7q-3" value="Administrative" style="shape=umlActor;verticalLabelPosition=bottom;verticalAlign=top;html=1;outlineConnect=0;" vertex="1" parent="1">
          <mxGeometry x="50" y="150" width="30" height="60" as="geometry" />
        </mxCell>
        <mxCell id="TT_8M1BcKb8gWuIl-T7q-4" value="See Appointment List" style="rounded=1;whiteSpace=wrap;html=1;" vertex="1" parent="1">
          <mxGeometry x="290" y="-40" width="160" height="60" as="geometry" />
        </mxCell>
        <mxCell id="TT_8M1BcKb8gWuIl-T7q-5" value="Can Confirm Appointments" style="rounded=1;whiteSpace=wrap;html=1;" vertex="1" parent="1">
          <mxGeometry x="290" y="30" width="160" height="60" as="geometry" />
        </mxCell>
        <mxCell id="TT_8M1BcKb8gWuIl-T7q-7" value="&amp;lt;&amp;lt; include &amp;gt;&amp;gt;" style="edgeStyle=orthogonalEdgeStyle;rounded=0;orthogonalLoop=1;jettySize=auto;html=1;exitX=0.5;exitY=0;exitDx=0;exitDy=0;entryX=0.5;entryY=1;entryDx=0;entryDy=0;dashed=1;" edge="1" parent="1" source="TT_8M1BcKb8gWuIl-T7q-6" target="TT_8M1BcKb8gWuIl-T7q-5">
          <mxGeometry relative="1" as="geometry" />
        </mxCell>
        <mxCell id="TT_8M1BcKb8gWuIl-T7q-6" value="Send Confirmation to patient" style="rounded=1;whiteSpace=wrap;html=1;" vertex="1" parent="1">
          <mxGeometry x="290" y="140" width="160" height="60" as="geometry" />
        </mxCell>
        <mxCell id="TT_8M1BcKb8gWuIl-T7q-8" value="Can Consult Online in video call" style="rounded=1;whiteSpace=wrap;html=1;" vertex="1" parent="1">
          <mxGeometry x="290" y="360" width="180" height="60" as="geometry" />
        </mxCell>
        <mxCell id="TT_8M1BcKb8gWuIl-T7q-9" value="Can Write Prescription" style="rounded=1;whiteSpace=wrap;html=1;" vertex="1" parent="1">
          <mxGeometry x="290" y="440" width="180" height="60" as="geometry" />
        </mxCell>
        <mxCell id="TT_8M1BcKb8gWuIl-T7q-10" value="Can suggest tests" style="rounded=1;whiteSpace=wrap;html=1;" vertex="1" parent="1">
          <mxGeometry x="290" y="520" width="180" height="60" as="geometry" />
        </mxCell>
        <mxCell id="TT_8M1BcKb8gWuIl-T7q-11" value="Can Refer to another doctor" style="rounded=1;whiteSpace=wrap;html=1;" vertex="1" parent="1">
          <mxGeometry x="290" y="730" width="180" height="60" as="geometry" />
        </mxCell>
        <mxCell id="v62b1vU4KLSygvo5HSkQ-5" value="" style="endArrow=classic;html=1;rounded=0;entryX=0;entryY=0.5;entryDx=0;entryDy=0;" edge="1" parent="1" target="TT_8M1BcKb8gWuIl-T7q-4">
          <mxGeometry width="50" height="50" relative="1" as="geometry">
            <mxPoint x="20" y="-30" as="sourcePoint" />
            <mxPoint x="70" y="-80" as="targetPoint" />
          </mxGeometry>
        </mxCell>
        <mxCell id="v62b1vU4KLSygvo5HSkQ-6" value="" style="endArrow=classic;html=1;rounded=0;entryX=0;entryY=0.5;entryDx=0;entryDy=0;" edge="1" parent="1" target="TT_8M1BcKb8gWuIl-T7q-5">
          <mxGeometry width="50" height="50" relative="1" as="geometry">
            <mxPoint x="80" y="160" as="sourcePoint" />
            <mxPoint x="130" y="110" as="targetPoint" />
          </mxGeometry>
        </mxCell>
        <mxCell id="TT_8M1BcKb8gWuIl-T7q-14" value="&amp;lt;&amp;lt; extend &amp;gt;&amp;gt;" style="edgeStyle=orthogonalEdgeStyle;rounded=0;orthogonalLoop=1;jettySize=auto;html=1;exitX=0.5;exitY=0;exitDx=0;exitDy=0;entryX=0.5;entryY=1;entryDx=0;entryDy=0;dashed=1;" edge="1" parent="1" source="TT_8M1BcKb8gWuIl-T7q-13" target="TT_8M1BcKb8gWuIl-T7q-10">
          <mxGeometry relative="1" as="geometry" />
        </mxCell>
        <mxCell id="TT_8M1BcKb8gWuIl-T7q-13" value="Can See Test Reports" style="rounded=1;whiteSpace=wrap;html=1;" vertex="1" parent="1">
          <mxGeometry x="290" y="640" width="180" height="60" as="geometry" />
        </mxCell>
        <mxCell id="TT_8M1BcKb8gWuIl-T7q-15" value="Pay Salary to staffs" style="rounded=1;whiteSpace=wrap;html=1;" vertex="1" parent="1">
          <mxGeometry x="290" y="210" width="160" height="60" as="geometry" />
        </mxCell>
        <mxCell id="v62b1vU4KLSygvo5HSkQ-13" style="edgeStyle=orthogonalEdgeStyle;rounded=0;orthogonalLoop=1;jettySize=auto;html=1;entryX=0;entryY=0.65;entryDx=0;entryDy=0;entryPerimeter=0;" edge="1" parent="1" source="TT_8M1BcKb8gWuIl-T7q-2" target="TT_8M1BcKb8gWuIl-T7q-10">
          <mxGeometry relative="1" as="geometry">
            <Array as="points">
              <mxPoint x="-115" y="390" />
              <mxPoint x="95" y="390" />
              <mxPoint x="95" y="559" />
            </Array>
          </mxGeometry>
        </mxCell>
        <mxCell id="TT_8M1BcKb8gWuIl-T7q-44" value="&amp;lt;&amp;lt; include &amp;gt;&amp;gt;" style="edgeStyle=orthogonalEdgeStyle;rounded=0;orthogonalLoop=1;jettySize=auto;html=1;entryX=0;entryY=0.5;entryDx=0;entryDy=0;dashed=1;" edge="1" parent="1" source="TT_8M1BcKb8gWuIl-T7q-16" target="TT_8M1BcKb8gWuIl-T7q-32">
          <mxGeometry relative="1" as="geometry" />
        </mxCell>
        <mxCell id="TT_8M1BcKb8gWuIl-T7q-16" value="Watch Patient&#39;s Feedback" style="rounded=1;whiteSpace=wrap;html=1;" vertex="1" parent="1">
          <mxGeometry x="290" y="280" width="160" height="60" as="geometry" />
        </mxCell>
        <mxCell id="v62b1vU4KLSygvo5HSkQ-27" style="edgeStyle=orthogonalEdgeStyle;rounded=0;orthogonalLoop=1;jettySize=auto;html=1;entryX=1;entryY=0.5;entryDx=0;entryDy=0;" edge="1" parent="1" source="TT_8M1BcKb8gWuIl-T7q-17" target="TT_8M1BcKb8gWuIl-T7q-28">
          <mxGeometry relative="1" as="geometry" />
        </mxCell>
        <mxCell id="v62b1vU4KLSygvo5HSkQ-28" style="edgeStyle=orthogonalEdgeStyle;rounded=0;orthogonalLoop=1;jettySize=auto;html=1;entryX=1;entryY=0.75;entryDx=0;entryDy=0;" edge="1" parent="1" source="TT_8M1BcKb8gWuIl-T7q-17" target="TT_8M1BcKb8gWuIl-T7q-29">
          <mxGeometry relative="1" as="geometry" />
        </mxCell>
        <mxCell id="v62b1vU4KLSygvo5HSkQ-33" style="edgeStyle=orthogonalEdgeStyle;rounded=0;orthogonalLoop=1;jettySize=auto;html=1;entryX=1;entryY=0.5;entryDx=0;entryDy=0;" edge="1" parent="1" source="TT_8M1BcKb8gWuIl-T7q-17" target="TT_8M1BcKb8gWuIl-T7q-34">
          <mxGeometry relative="1" as="geometry" />
        </mxCell>
        <mxCell id="v62b1vU4KLSygvo5HSkQ-34" style="edgeStyle=orthogonalEdgeStyle;rounded=0;orthogonalLoop=1;jettySize=auto;html=1;" edge="1" parent="1">
          <mxGeometry relative="1" as="geometry">
            <Array as="points">
              <mxPoint x="970" y="-30" />
              <mxPoint x="970" y="510" />
              <mxPoint x="520" y="510" />
              <mxPoint x="520" y="670" />
            </Array>
            <mxPoint x="1050" y="-30" as="sourcePoint" />
            <mxPoint x="470" y="670" as="targetPoint" />
          </mxGeometry>
        </mxCell>
        <mxCell id="TT_8M1BcKb8gWuIl-T7q-17" value="Patients" style="shape=umlActor;verticalLabelPosition=bottom;verticalAlign=top;html=1;outlineConnect=0;" vertex="1" parent="1">
          <mxGeometry x="1130" y="100" width="30" height="60" as="geometry" />
        </mxCell>
        <mxCell id="TT_8M1BcKb8gWuIl-T7q-25" style="edgeStyle=orthogonalEdgeStyle;rounded=0;orthogonalLoop=1;jettySize=auto;html=1;exitX=0.5;exitY=0.5;exitDx=0;exitDy=0;exitPerimeter=0;entryX=1;entryY=0.5;entryDx=0;entryDy=0;" edge="1" parent="1" source="TT_8M1BcKb8gWuIl-T7q-19" target="TT_8M1BcKb8gWuIl-T7q-23">
          <mxGeometry relative="1" as="geometry">
            <Array as="points">
              <mxPoint x="1085" y="-30" />
            </Array>
          </mxGeometry>
        </mxCell>
        <mxCell id="TT_8M1BcKb8gWuIl-T7q-21" value="Patients (Age&amp;gt;=65)" style="shape=umlActor;verticalLabelPosition=bottom;verticalAlign=top;html=1;outlineConnect=0;" vertex="1" parent="1">
          <mxGeometry x="1190" y="-40" width="30" height="60" as="geometry" />
        </mxCell>
        <mxCell id="TT_8M1BcKb8gWuIl-T7q-23" value="Apply for Insurance" style="rounded=1;whiteSpace=wrap;html=1;" vertex="1" parent="1">
          <mxGeometry x="650" y="-60" width="160" height="60" as="geometry" />
        </mxCell>
        <mxCell id="TT_8M1BcKb8gWuIl-T7q-27" value="&amp;lt;&amp;lt; extend &amp;gt;&amp;gt;" style="edgeStyle=orthogonalEdgeStyle;rounded=0;orthogonalLoop=1;jettySize=auto;html=1;exitX=0.5;exitY=0;exitDx=0;exitDy=0;entryX=0.5;entryY=1;entryDx=0;entryDy=0;dashed=1;" edge="1" parent="1" source="TT_8M1BcKb8gWuIl-T7q-26" target="TT_8M1BcKb8gWuIl-T7q-23">
          <mxGeometry relative="1" as="geometry" />
        </mxCell>
        <mxCell id="TT_8M1BcKb8gWuIl-T7q-26" value="Get Update on Insurance Application" style="rounded=1;whiteSpace=wrap;html=1;" vertex="1" parent="1">
          <mxGeometry x="650" y="60" width="160" height="60" as="geometry" />
        </mxCell>
        <mxCell id="v62b1vU4KLSygvo5HSkQ-24" style="edgeStyle=orthogonalEdgeStyle;rounded=0;orthogonalLoop=1;jettySize=auto;html=1;entryX=1;entryY=0.5;entryDx=0;entryDy=0;" edge="1" parent="1" source="TT_8M1BcKb8gWuIl-T7q-17" target="TT_8M1BcKb8gWuIl-T7q-4">
          <mxGeometry relative="1" as="geometry">
            <Array as="points">
              <mxPoint x="620" y="130" />
              <mxPoint x="620" y="-10" />
            </Array>
          </mxGeometry>
        </mxCell>
        <mxCell id="v62b1vU4KLSygvo5HSkQ-25" style="edgeStyle=orthogonalEdgeStyle;rounded=0;orthogonalLoop=1;jettySize=auto;html=1;entryX=0.5;entryY=0;entryDx=0;entryDy=0;entryPerimeter=0;" edge="1" parent="1" source="TT_8M1BcKb8gWuIl-T7q-19" target="TT_8M1BcKb8gWuIl-T7q-17">
          <mxGeometry relative="1" as="geometry">
            <Array as="points">
              <mxPoint x="1085" y="80" />
              <mxPoint x="1145" y="80" />
            </Array>
          </mxGeometry>
        </mxCell>
        <mxCell id="TT_8M1BcKb8gWuIl-T7q-19" value="Patients (Age&amp;lt;65)" style="shape=umlActor;verticalLabelPosition=bottom;verticalAlign=top;html=1;outlineConnect=0;" vertex="1" parent="1">
          <mxGeometry x="1070" y="-40" width="30" height="60" as="geometry" />
        </mxCell>
        <mxCell id="v62b1vU4KLSygvo5HSkQ-26" style="edgeStyle=orthogonalEdgeStyle;rounded=0;orthogonalLoop=1;jettySize=auto;html=1;entryX=0.5;entryY=0;entryDx=0;entryDy=0;entryPerimeter=0;" edge="1" parent="1" source="TT_8M1BcKb8gWuIl-T7q-21" target="TT_8M1BcKb8gWuIl-T7q-17">
          <mxGeometry relative="1" as="geometry">
            <Array as="points">
              <mxPoint x="1205" y="80" />
              <mxPoint x="1145" y="80" />
            </Array>
          </mxGeometry>
        </mxCell>
        <mxCell id="TT_8M1BcKb8gWuIl-T7q-28" value="Apply for Appointment" style="rounded=1;whiteSpace=wrap;html=1;" vertex="1" parent="1">
          <mxGeometry x="650" y="150" width="160" height="60" as="geometry" />
        </mxCell>
        <mxCell id="TT_8M1BcKb8gWuIl-T7q-30" value="&amp;lt;&amp;lt; include &amp;gt;&amp;gt;" style="edgeStyle=orthogonalEdgeStyle;rounded=0;orthogonalLoop=1;jettySize=auto;html=1;entryX=1;entryY=0.5;entryDx=0;entryDy=0;dashed=1;" edge="1" parent="1" source="TT_8M1BcKb8gWuIl-T7q-29" target="TT_8M1BcKb8gWuIl-T7q-6">
          <mxGeometry relative="1" as="geometry" />
        </mxCell>
        <mxCell id="TT_8M1BcKb8gWuIl-T7q-31" value="&amp;lt;&amp;lt; extend &amp;gt;&amp;gt;" style="edgeStyle=orthogonalEdgeStyle;rounded=0;orthogonalLoop=1;jettySize=auto;html=1;entryX=0.5;entryY=1;entryDx=0;entryDy=0;dashed=1;" edge="1" parent="1" source="TT_8M1BcKb8gWuIl-T7q-29" target="TT_8M1BcKb8gWuIl-T7q-28">
          <mxGeometry relative="1" as="geometry" />
        </mxCell>
        <mxCell id="TT_8M1BcKb8gWuIl-T7q-29" value="Get update for appointment confrmation" style="rounded=1;whiteSpace=wrap;html=1;" vertex="1" parent="1">
          <mxGeometry x="650" y="250" width="160" height="60" as="geometry" />
        </mxCell>
        <mxCell id="TT_8M1BcKb8gWuIl-T7q-32" value="Can provide feedback of service" style="rounded=1;whiteSpace=wrap;html=1;" vertex="1" parent="1">
          <mxGeometry x="650" y="330" width="160" height="60" as="geometry" />
        </mxCell>
        <mxCell id="TT_8M1BcKb8gWuIl-T7q-33" style="edgeStyle=orthogonalEdgeStyle;rounded=0;orthogonalLoop=1;jettySize=auto;html=1;entryX=1;entryY=0.5;entryDx=0;entryDy=0;" edge="1" parent="1" source="TT_8M1BcKb8gWuIl-T7q-17" target="TT_8M1BcKb8gWuIl-T7q-8">
          <mxGeometry relative="1" as="geometry">
            <Array as="points">
              <mxPoint x="970" y="130" />
              <mxPoint x="970" y="410" />
              <mxPoint x="500" y="410" />
              <mxPoint x="500" y="390" />
            </Array>
          </mxGeometry>
        </mxCell>
        <mxCell id="TT_8M1BcKb8gWuIl-T7q-35" value="&amp;lt;&amp;lt; include &amp;gt;&amp;gt;" style="edgeStyle=orthogonalEdgeStyle;rounded=0;orthogonalLoop=1;jettySize=auto;html=1;exitX=0;exitY=0.5;exitDx=0;exitDy=0;entryX=1;entryY=0.5;entryDx=0;entryDy=0;dashed=1;" edge="1" parent="1" source="TT_8M1BcKb8gWuIl-T7q-34" target="TT_8M1BcKb8gWuIl-T7q-9">
          <mxGeometry relative="1" as="geometry">
            <Array as="points">
              <mxPoint x="650" y="470" />
            </Array>
          </mxGeometry>
        </mxCell>
        <mxCell id="TT_8M1BcKb8gWuIl-T7q-34" value="Can See Prescription &amp;amp; Suggested Tests" style="rounded=1;whiteSpace=wrap;html=1;" vertex="1" parent="1">
          <mxGeometry x="650" y="420" width="160" height="60" as="geometry" />
        </mxCell>
        <mxCell id="v62b1vU4KLSygvo5HSkQ-29" style="edgeStyle=orthogonalEdgeStyle;rounded=0;orthogonalLoop=1;jettySize=auto;html=1;entryX=1;entryY=0.5;entryDx=0;entryDy=0;" edge="1" parent="1" source="TT_8M1BcKb8gWuIl-T7q-17" target="TT_8M1BcKb8gWuIl-T7q-32">
          <mxGeometry relative="1" as="geometry" />
        </mxCell>
        <mxCell id="v62b1vU4KLSygvo5HSkQ-35" style="edgeStyle=orthogonalEdgeStyle;rounded=0;orthogonalLoop=1;jettySize=auto;html=1;entryX=1;entryY=0.5;entryDx=0;entryDy=0;" edge="1" parent="1" source="TT_8M1BcKb8gWuIl-T7q-37" target="TT_8M1BcKb8gWuIl-T7q-38">
          <mxGeometry relative="1" as="geometry">
            <Array as="points">
              <mxPoint x="970" y="570" />
              <mxPoint x="970" y="560" />
            </Array>
          </mxGeometry>
        </mxCell>
        <mxCell id="v62b1vU4KLSygvo5HSkQ-36" style="edgeStyle=orthogonalEdgeStyle;rounded=0;orthogonalLoop=1;jettySize=auto;html=1;entryX=1;entryY=0.5;entryDx=0;entryDy=0;" edge="1" parent="1" source="TT_8M1BcKb8gWuIl-T7q-37" target="TT_8M1BcKb8gWuIl-T7q-39">
          <mxGeometry relative="1" as="geometry">
            <Array as="points">
              <mxPoint x="970" y="570" />
              <mxPoint x="970" y="700" />
            </Array>
          </mxGeometry>
        </mxCell>
        <mxCell id="v62b1vU4KLSygvo5HSkQ-42" style="edgeStyle=orthogonalEdgeStyle;rounded=0;orthogonalLoop=1;jettySize=auto;html=1;entryX=1;entryY=0.5;entryDx=0;entryDy=0;" edge="1" parent="1" source="TT_8M1BcKb8gWuIl-T7q-37" target="TT_8M1BcKb8gWuIl-T7q-42">
          <mxGeometry relative="1" as="geometry">
            <Array as="points">
              <mxPoint x="969" y="570" />
              <mxPoint x="969" y="630" />
            </Array>
          </mxGeometry>
        </mxCell>
        <mxCell id="TT_8M1BcKb8gWuIl-T7q-43" style="edgeStyle=orthogonalEdgeStyle;rounded=0;orthogonalLoop=1;jettySize=auto;html=1;entryX=1;entryY=0.5;entryDx=0;entryDy=0;" edge="1" parent="1" source="TT_8M1BcKb8gWuIl-T7q-37" target="TT_8M1BcKb8gWuIl-T7q-40">
          <mxGeometry relative="1" as="geometry" />
        </mxCell>
        <mxCell id="TT_8M1BcKb8gWuIl-T7q-37" value="Insurance Provider" style="shape=umlActor;verticalLabelPosition=bottom;verticalAlign=top;html=1;outlineConnect=0;" vertex="1" parent="1">
          <mxGeometry x="1130" y="540" width="30" height="60" as="geometry" />
        </mxCell>
        <mxCell id="TT_8M1BcKb8gWuIl-T7q-38" value="Can See Insurance Applications" style="rounded=1;whiteSpace=wrap;html=1;" vertex="1" parent="1">
          <mxGeometry x="650" y="530" width="160" height="60" as="geometry" />
        </mxCell>
        <mxCell id="TT_8M1BcKb8gWuIl-T7q-39" value="Can See medical History" style="rounded=1;whiteSpace=wrap;html=1;" vertex="1" parent="1">
          <mxGeometry x="650" y="670" width="160" height="60" as="geometry" />
        </mxCell>
        <mxCell id="TT_8M1BcKb8gWuIl-T7q-40" value="Can See billing history" style="rounded=1;whiteSpace=wrap;html=1;" vertex="1" parent="1">
          <mxGeometry x="650" y="740" width="160" height="60" as="geometry" />
        </mxCell>
        <mxCell id="v62b1vU4KLSygvo5HSkQ-44" style="edgeStyle=orthogonalEdgeStyle;rounded=0;orthogonalLoop=1;jettySize=auto;html=1;entryX=1;entryY=0.75;entryDx=0;entryDy=0;" edge="1" parent="1" source="TT_8M1BcKb8gWuIl-T7q-41" target="TT_8M1BcKb8gWuIl-T7q-39">
          <mxGeometry relative="1" as="geometry">
            <Array as="points">
              <mxPoint x="1050" y="700" />
              <mxPoint x="1050" y="715" />
            </Array>
          </mxGeometry>
        </mxCell>
        <mxCell id="v62b1vU4KLSygvo5HSkQ-45" style="edgeStyle=orthogonalEdgeStyle;rounded=0;orthogonalLoop=1;jettySize=auto;html=1;entryX=1;entryY=0.75;entryDx=0;entryDy=0;" edge="1" parent="1" source="TT_8M1BcKb8gWuIl-T7q-41" target="TT_8M1BcKb8gWuIl-T7q-40">
          <mxGeometry relative="1" as="geometry">
            <Array as="points">
              <mxPoint x="1050" y="700" />
              <mxPoint x="1050" y="785" />
            </Array>
          </mxGeometry>
        </mxCell>
        <mxCell id="TT_8M1BcKb8gWuIl-T7q-41" value="Staff #2" style="shape=umlActor;verticalLabelPosition=bottom;verticalAlign=top;html=1;outlineConnect=0;" vertex="1" parent="1">
          <mxGeometry x="1130" y="670" width="30" height="60" as="geometry" />
        </mxCell>
        <mxCell id="TT_8M1BcKb8gWuIl-T7q-42" value="Can Approve Insurance" style="rounded=1;whiteSpace=wrap;html=1;" vertex="1" parent="1">
          <mxGeometry x="650" y="600" width="160" height="60" as="geometry" />
        </mxCell>
      </root>
    </mxGraphModel>
  </diagram>
</mxfile>
